<?xml version="1.0" encoding="utf-8"?>
<!-- Generator: Adobe Illustrator 24.0.1, SVG Export Plug-In . SVG Version: 6.00 Build 0)  -->
<svg version="1.1" id="Livello_1" xmlns="http://www.w3.org/2000/svg" xmlns:xlink="http://www.w3.org/1999/xlink" x="0px" y="0px"
	 viewBox="0 0 218 47" style="enable-background:new 0 0 218 47;" xml:space="preserve">
<style type="text/css">
	.st0{opacity:0.5;fill:#0E0E0E;stroke:#827E7D;stroke-miterlimit:10;}
	.st1{opacity:0.4;}
	.st2{fill:#0E0E0E;stroke:#827E7D;stroke-width:0.5;stroke-miterlimit:10;}
	.st3{fill:#0E0E0E;}
</style>
<g>
	<g>
		<g>
			<g>
				<g id="XMLID_2_">
					<g>
					</g>
					<g>
					</g>
				</g>
				<path class="st0" d="M145.5,41.08"/>
				<g class="st1">
					<path class="st2" d="M216.22,41.11"/>
					<path class="st2" d="M201.77,41.1"/>
					<path class="st2" d="M187.04,41.1"/>
					<path class="st2" d="M172.86,41.09"/>
					<path class="st2" d="M158.6,41.09"/>
				</g>
			</g>
		</g>
	</g>
	<g>
		<path class="st3" d="M35.02,0.78h20.69c0.58,0,0.95,0.21,1.13,0.64c-1.81,5.56-2.83,8.48-3.04,8.76l-0.79,0.15h-24.2
			c-6.22,0-9.82,0.43-10.82,1.28c-1.8,1.54-3.55,5.42-5.25,11.63c-0.11,1.33-0.17,2.07-0.17,2.23c0,1.48,1.01,2.21,3.04,2.21
			c0,0.26,2.54,0.43,7.63,0.49h24.2c0.15,0,0.31,0.16,0.47,0.47c-1.69,5.68-2.75,8.7-3.17,9.08l-0.81,0.15H18.78
			c-9.68,0-15.41-0.95-17.18-2.85C0.53,33.62,0,32.08,0,30.39C0,26.58,2.01,19.78,6.04,10c1.95-3.93,4.87-6.58,8.76-7.95
			C16.6,1.2,23.34,0.78,35.02,0.78z M2.55,29.12c0.05,1.28,0.21,1.91,0.47,1.91v-1.13c0.06-3.21,2.13-9.53,6.21-18.95
			c2.53-4.66,7.14-7,13.84-7c0.19-0.11,1.78-0.17,4.78-0.17h24.03l1.13-0.15V3.16H28.17c-9.08,0-14.44,0.37-16.08,1.13
			c-1.84,0.9-3.16,2.65-3.98,5.25C4.41,18.7,2.55,25.23,2.55,29.12z M12.25,29.76v0.15c1.6,0.75,4.95,1.13,10.04,1.13h21.01
			l0.81-0.17v-0.47H18.95c-2.01,0-4.19-0.21-6.53-0.64H12.25z"/>
		<path class="st3" d="M53.8,26.08h10.5c0.16,0,0.33,0.21,0.49,0.64c-2.2,6.84-3.43,10.29-3.68,10.35
			c-0.34,0.21-0.65,0.32-0.94,0.32h-10.2c-0.15,0-0.31-0.16-0.47-0.47c2.05-7.12,3.27-10.67,3.66-10.67
			C53.35,26.14,53.57,26.08,53.8,26.08z M53.49,27.2v0.15c0,0.58,0.16,1.16,0.49,1.76c-1.06,3.13-1.59,4.93-1.59,5.4h0.32
			c0.65,0,1.08-0.53,1.28-1.59c0.73-2.65,1.25-3.98,1.58-3.98h5.1c0.21,0,0.32-0.11,0.32-0.32v-0.15l-0.79-0.17H55.4
			C54.64,27.57,54,27.2,53.49,27.2z"/>
		<path class="st3" d="M109.04,0.94c6.25,0.46,9.38,1.36,9.38,2.7c0.51,0.28,0.83,1.39,0.96,3.34c0,2.79-1.27,6.82-3.81,12.1
			c-1.3,2.15-3.21,3.58-5.74,4.3v0.17c2.01,0.83,3.02,2.36,3.02,4.61c1.39,7.39,2.33,13.31,2.83,17.74l-0.47,0.32H103.9
			c-0.55,0-1.33-3.05-2.34-9.15c-0.78-5.1-1.26-7.75-1.44-7.95c-0.95-0.33-1.58-0.49-1.89-0.49H79.59c-0.79,0-1.32,0.8-1.59,2.4
			c-1.38,4.39-2.23,6.61-2.55,6.68l-0.79,0.15h-9.57c-0.15,0-0.31-0.16-0.47-0.47v-0.15c0-0.28,3.82-12.16,11.46-35.66l0.64-0.49
			h28.49C106.26,1.09,107.54,1.04,109.04,0.94z M76.87,2.22v0.15c0,0.61,0.16,1.14,0.49,1.59c0,0.24-3.35,10.53-10.04,30.88
			l0.32,0.17h0.17c0.85,0,1.28-0.69,1.28-2.08c1.26-3.65,4.45-13.31,9.55-28.96h30.87c1.91,0,3.61,0.21,5.1,0.64V4.28
			c-1.95-0.64-4.4-0.96-7.33-0.96H79.27c-0.36,0-1-0.37-1.91-1.11H76.87z M108.87,10.64v1.13c0,1.43-0.74,3.23-2.23,5.4
			c-1.71,1-2.61,1.69-2.7,2.08c-0.84,1.48-3.06,2.21-6.68,2.21H81.97c-0.24,0-0.45-0.05-0.64-0.15c-0.2,0.1-0.36,0.15-0.47,0.15
			v0.32C82,22,83.22,22.1,84.52,22.1h9.38c8.58,0,12.88-0.69,12.91-2.06c0.65-0.27,1.39-1.98,2.23-5.1l0.32-2.38
			C109.27,11.28,109.11,10.64,108.87,10.64z M81.97,18.93l0.47,0.32h8.44c9.03,0,13.54-0.48,13.54-1.44
			c0.7-0.64,1.39-2.33,2.06-5.08v-0.64c0-1.06-1.33-1.59-3.98-1.59H85.63c-0.98,0-1.72,1.33-2.23,3.98
			C82.97,15.39,82.5,16.88,81.97,18.93z"/>
		<path class="st3" d="M119.92,26.08h10.5c0.16,0,0.33,0.21,0.49,0.64c-2.2,6.84-3.43,10.29-3.68,10.35
			c-0.34,0.21-0.65,0.32-0.94,0.32h-10.2c-0.15,0-0.31-0.16-0.47-0.47c2.05-7.12,3.27-10.67,3.66-10.67
			C119.47,26.14,119.68,26.08,119.92,26.08z M119.6,27.2v0.15c0,0.58,0.16,1.16,0.49,1.76c-1.06,3.13-1.59,4.93-1.59,5.4h0.32
			c0.65,0,1.08-0.53,1.28-1.59c0.73-2.65,1.25-3.98,1.58-3.98h5.1c0.21,0,0.32-0.11,0.32-0.32v-0.15l-0.79-0.17h-4.78
			C120.75,27.57,120.11,27.2,119.6,27.2z"/>
		<path class="st3" d="M184.65,0.78h20.69c0.58,0,0.95,0.21,1.13,0.64c-1.81,5.56-2.83,8.48-3.04,8.76l-0.79,0.15h-24.2
			c-6.22,0-9.82,0.43-10.82,1.28c-1.8,1.54-3.55,5.42-5.25,11.63c-0.11,1.33-0.17,2.07-0.17,2.23c0,1.48,1.01,2.21,3.04,2.21
			c0,0.26,2.54,0.43,7.63,0.49h24.2c0.15,0,0.31,0.16,0.47,0.47c-1.69,5.68-2.75,8.7-3.17,9.08l-0.81,0.15h-25.15
			c-9.68,0-15.41-0.95-17.18-2.85c-1.06-1.39-1.59-2.93-1.59-4.61c0-3.81,2.01-10.61,6.04-20.39c1.95-3.93,4.87-6.58,8.76-7.95
			C166.23,1.2,172.97,0.78,184.65,0.78z M152.18,29.12c0.05,1.28,0.21,1.91,0.47,1.91v-1.13c0.06-3.21,2.13-9.53,6.21-18.95
			c2.53-4.66,7.14-7,13.84-7c0.19-0.11,1.78-0.17,4.78-0.17h24.03l1.13-0.15V3.16H177.8c-9.08,0-14.44,0.37-16.08,1.13
			c-1.84,0.9-3.16,2.65-3.98,5.25C154.04,18.7,152.18,25.23,152.18,29.12z M161.88,29.76v0.15c1.6,0.75,4.95,1.13,10.04,1.13h21.01
			l0.81-0.17v-0.47h-25.15c-2.01,0-4.19-0.21-6.53-0.64H161.88z"/>
		<path class="st3" d="M207.01,26.08h10.5c0.16,0,0.33,0.21,0.49,0.64c-2.2,6.84-3.43,10.29-3.68,10.35
			c-0.34,0.21-0.65,0.32-0.94,0.32h-10.2c-0.15,0-0.31-0.16-0.47-0.47c2.05-7.12,3.27-10.67,3.66-10.67
			C206.56,26.14,206.77,26.08,207.01,26.08z M206.69,27.2v0.15c0,0.58,0.16,1.16,0.49,1.76c-1.06,3.13-1.59,4.93-1.59,5.4h0.32
			c0.65,0,1.08-0.53,1.28-1.59c0.73-2.65,1.25-3.98,1.58-3.98h5.1c0.21,0,0.32-0.11,0.32-0.32v-0.15l-0.79-0.17h-4.78
			C207.84,27.57,207.2,27.2,206.69,27.2z"/>
	</g>
	<g>
		<path class="st3" d="M148.93,26.18l-4.34,5.74l2.7,3.65l-2.91,2.17l-2.11-2.71c-0.79,0.85-1.58,1.52-2.39,2
			c-0.95,0.54-1.91,0.82-2.89,0.82c-1.51,0-2.77-0.46-3.79-1.37c-1.02-0.91-1.53-2.09-1.53-3.53c0-0.39,0.04-0.75,0.11-1.08
			c0.22-1.25,0.75-2.35,1.59-3.29c0.74-0.83,1.73-1.56,2.97-2.2c-0.34-0.44-0.6-0.88-0.77-1.3c-0.17-0.43-0.26-0.89-0.26-1.39
			c0-0.25,0.02-0.51,0.08-0.77c0.26-1.41,0.93-2.57,2.02-3.51c1.09-0.93,2.33-1.4,3.74-1.4c1.2,0,2.18,0.36,2.94,1.07
			c0.76,0.71,1.15,1.63,1.15,2.76c0,0.28-0.02,0.56-0.08,0.85c-0.21,1.08-0.64,2-1.29,2.77c-0.65,0.77-1.52,1.41-2.6,1.92l1.39,1.96
			l2.47-3.16H148.93z M140.37,32.43l-2.35-3.31c-0.75,0.28-1.35,0.64-1.79,1.05c-0.57,0.51-0.92,1.13-1.05,1.84
			c-0.03,0.24-0.05,0.41-0.05,0.51c0,0.6,0.21,1.08,0.62,1.44c0.41,0.36,0.93,0.54,1.57,0.54c0.6,0,1.18-0.22,1.74-0.65
			C139.48,33.55,139.92,33.07,140.37,32.43z M141.88,22.87c0.03-0.07,0.04-0.18,0.04-0.34c0-0.8-0.46-1.2-1.39-1.2
			c-0.44,0-0.84,0.14-1.18,0.43c-0.34,0.28-0.56,0.65-0.64,1.09c-0.02,0.07-0.04,0.17-0.04,0.3c0,0.38,0.15,0.79,0.44,1.24
			c0.11,0.15,0.26,0.36,0.46,0.64c0.65-0.28,1.13-0.54,1.44-0.8C141.49,23.85,141.78,23.4,141.88,22.87z"/>
	</g>
	<path class="st3" d="M137.48,36.87c0,0-6.9-1.05-3.35-7.09C134.13,29.78,128.96,36.2,137.48,36.87z"/>
</g>
</svg>
