<?xml version="1.0" encoding="utf-8"?>
<!-- Generator: Adobe Illustrator 24.0.1, SVG Export Plug-In . SVG Version: 6.00 Build 0)  -->
<svg version="1.1" id="Livello_1" xmlns="http://www.w3.org/2000/svg" xmlns:xlink="http://www.w3.org/1999/xlink" x="0px" y="0px"
	 viewBox="0 0 800 600" style="enable-background:new 0 0 800 600;" xml:space="preserve">
<style type="text/css">
	.st0{fill:none;stroke:#0F0F0F;stroke-miterlimit:10;}
	.st1{fill:none;stroke:#0F0F0F;stroke-width:0.5;stroke-miterlimit:10;}
</style>
<path class="st0" d="M702.57,228.56"/>
<path class="st1" d="M5.16,247.23c0,0,17.97-25.6,25.18-35.34c0,0,36.88-49.91,73.98-89.44c38.36-40.87,108-104.68,156.36-98.28
	c0,0,46.82,2.87,87.46,67.8c0,0,28.94,44.36,48.29,109.47l48.49,153.69l27.86,77.6c0,0,31.81,104.89,89.57,157.94
	c0,0,13.94,22.62,53.91,8.29c25.86-9.27,58.45-40.07,106.54-102.39c20.51-26.58,70.63-99,70.63-99l4.33-6.06H488.13l-25.09,45.97
	c-29.32,55.01-65.43,95.08-88.46,102.93c-25.42,8.67-36.81-22.16-36.81-22.16c-31.25-67.35-37.62-135.35-37.62-135.35l-11.58-72.37
	l-25.64-184.86c-11.21-60.09-28.95-87.26-28.95-87.26c-25.81-55.76-68.65-20.26-68.65-20.26c-33.5,27.29-58.74,63.51-83.12,97.18
	c-26.05,35.98-52.93,83.12-52.93,83.12C25.09,207.44,2.8,245.6,2.8,245.6"/>
<path class="st1" d="M4.86,246.84c0,0,17.93-25.27,24.59-34.94c0,0,36.24-52.32,70.45-90.33C161.52,53.1,216.51,12.69,256.48,22.62
	c0,0,32.46,0.88,75.09,65.81c0,0,26.36,43.26,44.27,107.94l44.88,152.67l25.79,77.09c0,0,29.44,104.19,82.9,156.89
	c5.98,7.62,25.85,12.24,52.19,3c32.12-11.27,90.73-83.14,108.96-113.1l52.73-81.72"/>
<path class="st1" d="M4.38,246.49c0,0,21.78-31.01,27.82-40.55c0,0,29.77-46.77,64.06-84.82c32.35-35.9,103.89-122.11,159.22-97.6
	c0,0,22.15,3.53,59.56,62.79c0,0,20.44,38,36.69,101.86l35.77,139.28l23.56,83.31c0,0,28.19,103.09,77.42,162
	c0,0,17.19,16.87,50.49,2.1s66.79-46.13,102.72-105.97l48.53-77.42"/>
<path class="st1" d="M4.03,246.22c0,0,17.95-26.29,23.58-35.77c0,0,25.39-40.4,67.82-94.29C124.69,79,193.45-3.77,243.9,19.8
	c0,0,18.61,1.42,53.45,60.3c0,0,18.68,39.19,33.81,102.64l32.67,143.5l20.68,79.82c0,0,21.03,100.9,66.17,152.6
	c0,0,13.76,17.91,43.01,8.27c35.15-11.58,73.61-55.42,103.8-107.94l40.6-67.51"/>
<path class="st1" d="M3.63,246.01c0,0,71.8-114.98,95.12-140.61c0,0,16.13-21.09,42.6-48.39c30.96-31.93,62.45-53.35,89.74-40.53
	c0,0,16.34,5.09,39.61,40.94c8.87,13.67,15.66,28.57,20.34,44.18c5.3,17.69,13.13,46.01,20.7,81.54l27.71,151.36l20.68,82.71
	c0,0,16.54,78.57,54.59,133.16c0,0,15.14,20.53,42.18,6.2c27.04-14.33,61.62-46.32,93.88-103.8l34.8-61.29"/>
<path class="st1" d="M537.93,391.17l-35.57,64.51c-33.5,57.48-57.48,78.99-81.06,91.81c-23.93,13.01-40.53-8.27-40.53-8.27
	c-33.79-50.21-50.45-143.09-50.45-143.09l-16.54-80.64l-22.75-141.43C279.72,112.44,265.4,71.91,265.4,71.91
	c-26.08-57.17-48.39-59.14-48.39-59.14c-21.09-10.75-51.28,10.34-84.78,45.9C105.57,86.99,64,148.41,64,148.41
	c-17.26,22.86-60.72,97.33-60.72,97.33"/>
</svg>
